<?xml version="1.0" encoding="UTF-8"?>
<svg width="1200pt" height="1200pt" version="1.1" viewBox="0 0 1200 1200" xmlns="http://www.w3.org/2000/svg">
 <path d="m37.5 131.25v956.25h1125v-956.25zm0-37.5h1125c20.711 0 37.5 16.789 37.5 37.5v956.25c0 20.711-16.789 37.5-37.5 37.5h-1125c-20.711 0-37.5-16.789-37.5-37.5v-956.25c0-20.711 16.789-37.5 37.5-37.5zm46.875 140.62c-20.711 0-37.5-16.789-37.5-37.5s16.789-37.5 37.5-37.5 37.5 16.789 37.5 37.5-16.789 37.5-37.5 37.5zm0-18.75c10.355 0 18.75-8.3945 18.75-18.75s-8.3945-18.75-18.75-18.75-18.75 8.3945-18.75 18.75 8.3945 18.75 18.75 18.75zm93.75 18.75c-20.711 0-37.5-16.789-37.5-37.5s16.789-37.5 37.5-37.5 37.5 16.789 37.5 37.5-16.789 37.5-37.5 37.5zm0-18.75c10.355 0 18.75-8.3945 18.75-18.75s-8.3945-18.75-18.75-18.75-18.75 8.3945-18.75 18.75 8.3945 18.75 18.75 18.75zm93.75 18.75c-20.711 0-37.5-16.789-37.5-37.5s16.789-37.5 37.5-37.5 37.5 16.789 37.5 37.5-16.789 37.5-37.5 37.5zm0-18.75c10.355 0 18.75-8.3945 18.75-18.75s-8.3945-18.75-18.75-18.75-18.75 8.3945-18.75 18.75 8.3945 18.75 18.75 18.75zm-234.38 46.875h1125v37.5h-1125zm93.75 112.5c-10.355 0-18.75 8.3945-18.75 18.75v600c0 10.355 8.3945 18.75 18.75 18.75h262.5c10.355 0 18.75-8.3945 18.75-18.75v-600c0-10.355-8.3945-18.75-18.75-18.75zm0-18.75h262.5c20.711 0 37.5 16.789 37.5 37.5v600c0 20.711-16.789 37.5-37.5 37.5h-262.5c-20.711 0-37.5-16.789-37.5-37.5v-600c0-20.711 16.789-37.5 37.5-37.5zm600 318.75h-206.25c-10.355 0-18.75 8.3945-18.75 18.75v168.75c0 10.355 8.3945 18.75 18.75 18.75h206.25c10.355 0 18.75-8.3945 18.75-18.75v-168.75c0-10.355-8.3945-18.75-18.75-18.75zm0-18.75c20.711 0 37.5 16.789 37.5 37.5v168.75c0 20.711-16.789 37.5-37.5 37.5h-206.25c-20.711 0-37.5-16.789-37.5-37.5v-168.75c0-20.711 16.789-37.5 37.5-37.5zm356.25-281.25c10.355 0 18.75 8.3945 18.75 18.75s-8.3945 18.75-18.75 18.75h-581.25c-10.355 0-18.75-8.3945-18.75-18.75s8.3945-18.75 18.75-18.75zm-328.12 75c5.1758 0 9.375 4.1992 9.375 9.375s-4.1992 9.375-9.375 9.375h-262.5c-5.1758 0-9.375-4.1992-9.375-9.375s4.1992-9.375 9.375-9.375zm0 37.5c5.1758 0 9.375 4.1992 9.375 9.375s-4.1992 9.375-9.375 9.375h-262.5c-5.1758 0-9.375-4.1992-9.375-9.375s4.1992-9.375 9.375-9.375zm0 37.5c5.1758 0 9.375 4.1992 9.375 9.375s-4.1992 9.375-9.375 9.375h-262.5c-5.1758 0-9.375-4.1992-9.375-9.375s4.1992-9.375 9.375-9.375zm337.5-75c5.1758 0 9.375 4.1992 9.375 9.375s-4.1992 9.375-9.375 9.375h-262.5c-5.1758 0-9.375-4.1992-9.375-9.375s4.1992-9.375 9.375-9.375zm0 37.5c5.1758 0 9.375 4.1992 9.375 9.375s-4.1992 9.375-9.375 9.375h-262.5c-5.1758 0-9.375-4.1992-9.375-9.375s4.1992-9.375 9.375-9.375zm0 37.5c5.1758 0 9.375 4.1992 9.375 9.375s-4.1992 9.375-9.375 9.375h-262.5c-5.1758 0-9.375-4.1992-9.375-9.375s4.1992-9.375 9.375-9.375zm-337.5 37.5c5.1758 0 9.375 4.1992 9.375 9.375s-4.1992 9.375-9.375 9.375h-262.5c-5.1758 0-9.375-4.1992-9.375-9.375s4.1992-9.375 9.375-9.375zm243.75 0c5.1758 0 9.375 4.1992 9.375 9.375s-4.1992 9.375-9.375 9.375h-168.75c-5.1758 0-9.375-4.1992-9.375-9.375s4.1992-9.375 9.375-9.375zm-243.75 375c5.1758 0 9.375 4.1992 9.375 9.375s-4.1992 9.375-9.375 9.375h-262.5c-5.1758 0-9.375-4.1992-9.375-9.375s4.1992-9.375 9.375-9.375zm0 37.5c5.1758 0 9.375 4.1992 9.375 9.375s-4.1992 9.375-9.375 9.375h-262.5c-5.1758 0-9.375-4.1992-9.375-9.375s4.1992-9.375 9.375-9.375zm-75 37.5c5.1758 0 9.375 4.1992 9.375 9.375s-4.1992 9.375-9.375 9.375h-187.5c-5.1758 0-9.375-4.1992-9.375-9.375s4.1992-9.375 9.375-9.375zm384.38-337.5h-206.25c-10.355 0-18.75 8.3945-18.75 18.75v168.75c0 10.355 8.3945 18.75 18.75 18.75h206.25c10.355 0 18.75-8.3945 18.75-18.75v-168.75c0-10.355-8.3945-18.75-18.75-18.75zm0-18.75c20.711 0 37.5 16.789 37.5 37.5v168.75c0 20.711-16.789 37.5-37.5 37.5h-206.25c-20.711 0-37.5-16.789-37.5-37.5v-168.75c0-20.711 16.789-37.5 37.5-37.5zm28.125 281.25c5.1758 0 9.375 4.1992 9.375 9.375s-4.1992 9.375-9.375 9.375h-262.5c-5.1758 0-9.375-4.1992-9.375-9.375s4.1992-9.375 9.375-9.375zm0 37.5c5.1758 0 9.375 4.1992 9.375 9.375s-4.1992 9.375-9.375 9.375h-262.5c-5.1758 0-9.375-4.1992-9.375-9.375s4.1992-9.375 9.375-9.375zm-93.75 37.5c5.1758 0 9.375 4.1992 9.375 9.375s-4.1992 9.375-9.375 9.375h-168.75c-5.1758 0-9.375-4.1992-9.375-9.375s4.1992-9.375 9.375-9.375z" fill="#000"/>
</svg>
