<?xml version="1.0" encoding="UTF-8"?>
<svg width="1200px" height="1032px" viewBox="0 0 1200 1032" version="1.1" xmlns="http://www.w3.org/2000/svg" xmlns:xlink="http://www.w3.org/1999/xlink">
    <title>noun-browser-1497025-000000</title>
    <g id="Page-1" stroke="none" stroke-width="1" fill="none" fill-rule="evenodd">
        <g id="noun-browser-1497025-000000" fill="#000000" fill-rule="nonzero">
            <path d="M37.5,38.25 L37.5,994.5 L1162.5,994.5 L1162.5,38.25 L37.5,38.25 Z M37.5,0.75 L1162.5,0.75 C1183.211,0.75 1200,17.539 1200,38.25 L1200,994.5 C1200,1015.211 1183.211,1032 1162.5,1032 L37.5,1032 C16.789,1032 0,1015.211 0,994.5 L0,38.25 C0,17.539 16.789,0.75 37.5,0.75 Z M103.375,649 L1097.125,649 C1102.3008,649 1106.5,653.1992 1106.5,658.375 C1106.5,663.5508 1102.3008,667.75 1097.125,667.75 L103.375,667.75 C98.1992,667.75 94,663.5508 94,658.375 C94,653.1992 98.1992,649 103.375,649 Z M103.375,686.5 L1097.125,686.5 C1102.3008,686.5 1106.5,690.6992 1106.5,695.875 C1106.5,701.0508 1102.3008,705.25 1097.125,705.25 L103.375,705.25 C98.1992,705.25 94,701.0508 94,695.875 C94,690.6992 98.1992,686.5 103.375,686.5 Z M103.375,724 L1097.125,724 C1102.3008,724 1106.5,728.1992 1106.5,733.375 C1106.5,738.5508 1102.3008,742.75 1097.125,742.75 L103.375,742.75 C98.1992,742.75 94,738.5508 94,733.375 C94,728.1992 98.1992,724 103.375,724 Z M103.375,761.5 L1097.125,761.5 C1102.3008,761.5 1106.5,765.6992 1106.5,770.875 C1106.5,776.0508 1102.3008,780.25 1097.125,780.25 L103.375,780.25 C98.1992,780.25 94,776.0508 94,770.875 C94,765.6992 98.1992,761.5 103.375,761.5 Z M103.375,799 L1097.125,799 C1102.3008,799 1106.5,803.1992 1106.5,808.375 C1106.5,813.5508 1102.3008,817.75 1097.125,817.75 L103.375,817.75 C98.1992,817.75 94,813.5508 94,808.375 C94,803.1992 98.1992,799 103.375,799 Z M103.375,836.5 L1097.125,836.5 C1102.3008,836.5 1106.5,840.6992 1106.5,845.875 C1106.5,851.0508 1102.3008,855.25 1097.125,855.25 L103.375,855.25 C98.1992,855.25 94,851.0508 94,845.875 C94,840.6992 98.1992,836.5 103.375,836.5 Z M103.375,874 L909.625,874 C914.8008,874 919,878.1992 919,883.375 C919,888.5508 914.8008,892.75 909.625,892.75 L103.375,892.75 C98.1992,892.75 94,888.5508 94,883.375 C94,878.1992 98.1992,874 103.375,874 L103.375,874 Z M84.375,141.37 C63.664,141.37 46.875,124.581 46.875,103.87 C46.875,83.159 63.664,66.37 84.375,66.37 C105.086,66.37 121.875,83.159 121.875,103.87 C121.875,124.581 105.086,141.37 84.375,141.37 Z M84.375,122.62 C94.73,122.62 103.125,114.2255 103.125,103.87 C103.125,93.5145 94.7305,85.12 84.375,85.12 C74.0195,85.12 65.625,93.5145 65.625,103.87 C65.625,114.2255 74.0195,122.62 84.375,122.62 Z M178.125,141.37 C157.414,141.37 140.625,124.581 140.625,103.87 C140.625,83.159 157.414,66.37 178.125,66.37 C198.836,66.37 215.625,83.159 215.625,103.87 C215.625,124.581 198.836,141.37 178.125,141.37 Z M178.125,122.62 C188.48,122.62 196.875,114.2255 196.875,103.87 C196.875,93.5145 188.4805,85.12 178.125,85.12 C167.7695,85.12 159.375,93.5145 159.375,103.87 C159.375,114.2255 167.7695,122.62 178.125,122.62 Z M271.875,141.37 C251.164,141.37 234.375,124.581 234.375,103.87 C234.375,83.159 251.164,66.37 271.875,66.37 C292.586,66.37 309.375,83.159 309.375,103.87 C309.375,124.581 292.586,141.37 271.875,141.37 Z M271.875,122.62 C282.23,122.62 290.625,114.2255 290.625,103.87 C290.625,93.5145 282.2305,85.12 271.875,85.12 C261.5195,85.12 253.125,93.5145 253.125,103.87 C253.125,114.2255 261.5195,122.62 271.875,122.62 Z M37.495,169.495 L1162.495,169.495 L1162.495,206.995 L37.495,206.995 L37.495,169.495 Z M131.245,281.995 C120.89,281.995 112.495,290.3895 112.495,300.745 L112.495,506.995 C112.495,517.35 120.8895,525.745 131.245,525.745 L393.745,525.745 C404.1,525.745 412.495,517.3505 412.495,506.995 L412.495,300.745 C412.495,290.39 404.1005,281.995 393.745,281.995 L131.245,281.995 Z M131.245,263.245 L393.745,263.245 C414.456,263.245 431.245,280.034 431.245,300.745 L431.245,506.995 C431.245,527.706 414.456,544.495 393.745,544.495 L131.245,544.495 C110.534,544.495 93.745,527.706 93.745,506.995 L93.745,300.745 C93.745,280.034 110.534,263.245 131.245,263.245 Z M506.245,300.745 L1087.495,300.745 C1097.85,300.745 1106.245,309.1395 1106.245,319.495 C1106.245,329.8505 1097.8505,338.245 1087.495,338.245 L506.245,338.245 C495.89,338.245 487.495,329.8505 487.495,319.495 C487.495,309.1395 495.8895,300.745 506.245,300.745 Z M496.87,375.745 L1003.12,375.745 C1008.2958,375.745 1012.495,379.9442 1012.495,385.12 C1012.495,390.2958 1008.2958,394.495 1003.12,394.495 L496.87,394.495 C491.6942,394.495 487.495,390.2958 487.495,385.12 C487.495,379.9442 491.6942,375.745 496.87,375.745 Z M496.87,413.245 L1003.12,413.245 C1008.2958,413.245 1012.495,417.4442 1012.495,422.62 C1012.495,427.7958 1008.2958,431.995 1003.12,431.995 L496.87,431.995 C491.6942,431.995 487.495,427.7958 487.495,422.62 C487.495,417.4442 491.6942,413.245 496.87,413.245 Z M496.87,450.745 L1003.12,450.745 C1008.2958,450.745 1012.495,454.9442 1012.495,460.12 C1012.495,465.2958 1008.2958,469.495 1003.12,469.495 L496.87,469.495 C491.6942,469.495 487.495,465.2958 487.495,460.12 C487.495,454.9442 491.6942,450.745 496.87,450.745 Z M496.87,488.245 L815.62,488.245 C820.7958,488.245 824.995,492.4442 824.995,497.62 C824.995,502.7958 820.7958,506.995 815.62,506.995 L496.87,506.995 C491.6942,506.995 487.495,502.7958 487.495,497.62 C487.495,492.4442 491.6942,488.245 496.87,488.245 Z" id="Shape"></path>
        </g>
    </g>
</svg>