<?xml version="1.0" encoding="UTF-8"?>
<svg width="1200pt" height="1200pt" version="1.1" viewBox="0 0 1200 1200" xmlns="http://www.w3.org/2000/svg">
 <path d="m53.699 1169.9c-10.137-13.973 20-53.426 40.547-68.492l478.63-348.22c20.273-15.07 45.207-15.891 55.344-1.918s2.1914 37.535-18.355 52.328l-478.36 348.49c-20.273 15.07-67.398 31.781-77.809 17.809z"/>
 <path transform="matrix(2.7397 0 0 2.7397 -73.151 -59.726)" d="m129.3 385.2c-34.3-180.8 214.7-169.4 292-339.9 3.6999-9.3004 17.3 97.6 8.1997 136.5-1.4999 6.3005-62.6 44.901-64.4 51-1.4999 5.1998 51.3 1.1007 49.6 6.1993-41.301 119.2-182.8 218.5-290.3 151.9" fill="none" stroke="#000" stroke-miterlimit="10" stroke-width="25"/>
 <path d="m580.27 789.32c-5.4805-4.9297-9.3164-12.055-10.137-20l7.6719-259.45c-1.918-17.262 10.684-32.602 27.945-34.246 17.262-1.918 32.875 10.684 34.52 27.945l-7.6719 259.45c1.6445 17.262-10.684 32.602-27.945 34.52-9.3125 0.54688-18.082-2.4648-24.383-8.2188z"/>
 <path d="m427.4 904.11c-5.4805-4.9297-9.3164-12.055-10.137-20l7.6719-259.45c-1.918-17.262 10.684-32.602 27.945-34.246 17.262-1.918 32.875 10.684 34.52 27.945l-7.6719 259.45c1.6445 17.262-10.684 32.602-27.945 34.52-9.3164 0.82422-18.082-2.4648-24.383-8.2188z"/>
</svg>
