<?xml version="1.0" encoding="UTF-8"?>
<svg width="1200pt" height="1200pt" version="1.1" viewBox="0 0 1200 1200" xmlns="http://www.w3.org/2000/svg">
 <path d="m37.5 131.25v956.25h1125v-956.25zm0-37.5h1125c20.711 0 37.5 16.789 37.5 37.5v956.25c0 20.711-16.789 37.5-37.5 37.5h-1125c-20.711 0-37.5-16.789-37.5-37.5v-956.25c0-20.711 16.789-37.5 37.5-37.5zm46.875 140.62c-20.711 0-37.5-16.789-37.5-37.5s16.789-37.5 37.5-37.5 37.5 16.789 37.5 37.5-16.789 37.5-37.5 37.5zm0-18.75c10.355 0 18.75-8.3945 18.75-18.75s-8.3945-18.75-18.75-18.75-18.75 8.3945-18.75 18.75 8.3945 18.75 18.75 18.75zm93.75 18.75c-20.711 0-37.5-16.789-37.5-37.5s16.789-37.5 37.5-37.5 37.5 16.789 37.5 37.5-16.789 37.5-37.5 37.5zm0-18.75c10.355 0 18.75-8.3945 18.75-18.75s-8.3945-18.75-18.75-18.75-18.75 8.3945-18.75 18.75 8.3945 18.75 18.75 18.75zm93.75 18.75c-20.711 0-37.5-16.789-37.5-37.5s16.789-37.5 37.5-37.5 37.5 16.789 37.5 37.5-16.789 37.5-37.5 37.5zm0-18.75c10.355 0 18.75-8.3945 18.75-18.75s-8.3945-18.75-18.75-18.75-18.75 8.3945-18.75 18.75 8.3945 18.75 18.75 18.75zm-234.38 46.875h1125v37.5h-1125zm1033.5 93.75c19.492 0 35.293 16.789 35.293 37.5v131.25c0 20.711-15.801 37.5-35.293 37.5h-941.91c-19.492 0-35.293-16.789-35.293-37.5v-131.25c0-20.711 15.801-37.5 35.293-37.5zm-0.95703 18.75h-940c-9.6641 0-17.5 8.3945-17.5 18.75v131.25c0 10.355 7.8359 18.75 17.5 18.75h940c9.6641 0 17.5-8.3945 17.5-18.75v-131.25c0-10.355-7.8359-18.75-17.5-18.75zm-711.54 225c19.492 0 35.293 16.789 35.293 37.5v131.25c0 20.711-15.801 37.5-35.293 37.5h-229.41c-19.492 0-35.293-16.789-35.293-37.5v-131.25c0-20.711 15.801-37.5 35.293-37.5zm-0.95703 18.75h-227.5c-9.6641 0-17.5 8.3945-17.5 18.75v131.25c0 10.355 7.8359 18.75 17.5 18.75h227.5c9.6641 0 17.5-8.3945 17.5-18.75v-131.25c0-10.355-7.8359-18.75-17.5-18.75zm357.21-18.75c19.492 0 35.293 16.789 35.293 37.5v131.25c0 20.711-15.801 37.5-35.293 37.5h-229.41c-19.492 0-35.293-16.789-35.293-37.5v-131.25c0-20.711 15.801-37.5 35.293-37.5zm-0.95703 18.75h-227.5c-9.6641 0-17.5 8.3945-17.5 18.75v131.25c0 10.355 7.8359 18.75 17.5 18.75h227.5c9.6641 0 17.5-8.3945 17.5-18.75v-131.25c0-10.355-7.8359-18.75-17.5-18.75zm357.21-18.75c19.492 0 35.293 16.789 35.293 37.5v131.25c0 20.711-15.801 37.5-35.293 37.5h-229.41c-19.492 0-35.293-16.789-35.293-37.5v-131.25c0-20.711 15.801-37.5 35.293-37.5zm-0.95703 18.75h-227.5c-9.6641 0-17.5 8.3945-17.5 18.75v131.25c0 10.355 7.8359 18.75 17.5 18.75h227.5c9.6641 0 17.5-8.3945 17.5-18.75v-131.25c0-10.355-7.8359-18.75-17.5-18.75zm-711.54 225c19.492 0 35.293 16.789 35.293 37.5v131.25c0 20.711-15.801 37.5-35.293 37.5h-229.41c-19.492 0-35.293-16.789-35.293-37.5v-131.25c0-20.711 15.801-37.5 35.293-37.5zm-0.95703 18.75h-227.5c-9.6641 0-17.5 8.3945-17.5 18.75v131.25c0 10.355 7.8359 18.75 17.5 18.75h227.5c9.6641 0 17.5-8.3945 17.5-18.75v-131.25c0-10.355-7.8359-18.75-17.5-18.75zm357.21-18.75c19.492 0 35.293 16.789 35.293 37.5v131.25c0 20.711-15.801 37.5-35.293 37.5h-229.41c-19.492 0-35.293-16.789-35.293-37.5v-131.25c0-20.711 15.801-37.5 35.293-37.5zm-0.95703 18.75h-227.5c-9.6641 0-17.5 8.3945-17.5 18.75v131.25c0 10.355 7.8359 18.75 17.5 18.75h227.5c9.6641 0 17.5-8.3945 17.5-18.75v-131.25c0-10.355-7.8359-18.75-17.5-18.75zm357.21-18.75c19.492 0 35.293 16.789 35.293 37.5v131.25c0 20.711-15.801 37.5-35.293 37.5h-229.41c-19.492 0-35.293-16.789-35.293-37.5v-131.25c0-20.711 15.801-37.5 35.293-37.5zm-0.95703 18.75h-227.5c-9.6641 0-17.5 8.3945-17.5 18.75v131.25c0 10.355 7.8359 18.75 17.5 18.75h227.5c9.6641 0 17.5-8.3945 17.5-18.75v-131.25c0-10.355-7.8359-18.75-17.5-18.75z" fill="#fff"/>
</svg>
