<?xml version="1.0" encoding="UTF-8"?>
<svg width="1200pt" height="1200pt" version="1.1" viewBox="0 0 1200 1200" xmlns="http://www.w3.org/2000/svg">
 <path d="m37.5 131.25v956.25h1125v-956.25zm0-37.5h1125c20.711 0 37.5 16.789 37.5 37.5v956.25c0 20.711-16.789 37.5-37.5 37.5h-1125c-20.711 0-37.5-16.789-37.5-37.5v-956.25c0-20.711 16.789-37.5 37.5-37.5zm46.875 140.62c-20.711 0-37.5-16.789-37.5-37.5s16.789-37.5 37.5-37.5 37.5 16.789 37.5 37.5-16.789 37.5-37.5 37.5zm0-18.75c10.355 0 18.75-8.3945 18.75-18.75s-8.3945-18.75-18.75-18.75-18.75 8.3945-18.75 18.75 8.3945 18.75 18.75 18.75zm93.75 18.75c-20.711 0-37.5-16.789-37.5-37.5s16.789-37.5 37.5-37.5 37.5 16.789 37.5 37.5-16.789 37.5-37.5 37.5zm0-18.75c10.355 0 18.75-8.3945 18.75-18.75s-8.3945-18.75-18.75-18.75-18.75 8.3945-18.75 18.75 8.3945 18.75 18.75 18.75zm93.75 18.75c-20.711 0-37.5-16.789-37.5-37.5s16.789-37.5 37.5-37.5 37.5 16.789 37.5 37.5-16.789 37.5-37.5 37.5zm0-18.75c10.355 0 18.75-8.3945 18.75-18.75s-8.3945-18.75-18.75-18.75-18.75 8.3945-18.75 18.75 8.3945 18.75 18.75 18.75zm-234.38 46.875h1125v37.5h-1125zm93.75 393.75c-10.355 0-18.75 8.3945-18.75 18.75v318.75c0 10.355 8.3945 18.75 18.75 18.75h225c10.355 0 18.75-8.3945 18.75-18.75v-318.75c0-10.355-8.3945-18.75-18.75-18.75zm0-18.75h225c20.711 0 37.5 16.789 37.5 37.5v318.75c0 20.711-16.789 37.5-37.5 37.5h-225c-20.711 0-37.5-16.789-37.5-37.5v-318.75c0-20.711 16.789-37.5 37.5-37.5zm356.25 18.75c-10.355 0-18.75 8.3945-18.75 18.75v318.75c0 10.355 8.3945 18.75 18.75 18.75h225c10.355 0 18.75-8.3945 18.75-18.75v-318.75c0-10.355-8.3945-18.75-18.75-18.75zm0-18.75h225c20.711 0 37.5 16.789 37.5 37.5v318.75c0 20.711-16.789 37.5-37.5 37.5h-225c-20.711 0-37.5-16.789-37.5-37.5v-318.75c0-20.711 16.789-37.5 37.5-37.5zm356.25 18.75c-10.355 0-18.75 8.3945-18.75 18.75v318.75c0 10.355 8.3945 18.75 18.75 18.75h225c10.355 0 18.75-8.3945 18.75-18.75v-318.75c0-10.355-8.3945-18.75-18.75-18.75zm0-18.75h225c20.711 0 37.5 16.789 37.5 37.5v318.75c0 20.711-16.789 37.5-37.5 37.5h-225c-20.711 0-37.5-16.789-37.5-37.5v-318.75c0-20.711 16.789-37.5 37.5-37.5zm-487.5-262.5h-225c-10.355 0-18.75 8.3945-18.75 18.75v150c0 10.355 8.3945 18.75 18.75 18.75h225c10.355 0 18.75-8.3945 18.75-18.75v-150c0-10.355-8.3945-18.75-18.75-18.75zm0-18.75c20.711 0 37.5 16.789 37.5 37.5v150c0 20.711-16.789 37.5-37.5 37.5h-225c-20.711 0-37.5-16.789-37.5-37.5v-150c0-20.711 16.789-37.5 37.5-37.5zm731.25 18.75c10.355 0 18.75 8.3945 18.75 18.75s-8.3945 18.75-18.75 18.75h-618.75c-10.355 0-18.75-8.3945-18.75-18.75s8.3945-18.75 18.75-18.75zm-346.88 75c5.1758 0 9.375 4.1992 9.375 9.375s-4.1992 9.375-9.375 9.375h-281.25c-5.1758 0-9.375-4.1992-9.375-9.375s4.1992-9.375 9.375-9.375zm0 37.5c5.1758 0 9.375 4.1992 9.375 9.375s-4.1992 9.375-9.375 9.375h-281.25c-5.1758 0-9.375-4.1992-9.375-9.375s4.1992-9.375 9.375-9.375zm0 37.5c5.1758 0 9.375 4.1992 9.375 9.375s-4.1992 9.375-9.375 9.375h-281.25c-5.1758 0-9.375-4.1992-9.375-9.375s4.1992-9.375 9.375-9.375zm356.25-75c5.1758 0 9.375 4.1992 9.375 9.375s-4.1992 9.375-9.375 9.375h-300c-5.1758 0-9.375-4.1992-9.375-9.375s4.1992-9.375 9.375-9.375zm0 37.5c5.1758 0 9.375 4.1992 9.375 9.375s-4.1992 9.375-9.375 9.375h-300c-5.1758 0-9.375-4.1992-9.375-9.375s4.1992-9.375 9.375-9.375zm-131.25 37.5c5.1758 0 9.375 4.1992 9.375 9.375s-4.1992 9.375-9.375 9.375h-168.75c-5.1758 0-9.375-4.1992-9.375-9.375s4.1992-9.375 9.375-9.375z" fill="#fff"/>
</svg>
