<?xml version="1.0" encoding="UTF-8"?>
<svg width="1200pt" height="1200pt" version="1.1" viewBox="0 0 1200 1200" xmlns="http://www.w3.org/2000/svg">
 <path d="m37.5 131.25v956.25h1125v-956.25zm0-37.5h1125c20.711 0 37.5 16.789 37.5 37.5v956.25c0 20.711-16.789 37.5-37.5 37.5h-1125c-20.711 0-37.5-16.789-37.5-37.5v-956.25c0-20.711 16.789-37.5 37.5-37.5zm46.875 140.62c-20.711 0-37.5-16.789-37.5-37.5s16.789-37.5 37.5-37.5 37.5 16.789 37.5 37.5-16.789 37.5-37.5 37.5zm0-18.75c10.355 0 18.75-8.3945 18.75-18.75s-8.3945-18.75-18.75-18.75-18.75 8.3945-18.75 18.75 8.3945 18.75 18.75 18.75zm93.75 18.75c-20.711 0-37.5-16.789-37.5-37.5s16.789-37.5 37.5-37.5 37.5 16.789 37.5 37.5-16.789 37.5-37.5 37.5zm0-18.75c10.355 0 18.75-8.3945 18.75-18.75s-8.3945-18.75-18.75-18.75-18.75 8.3945-18.75 18.75 8.3945 18.75 18.75 18.75zm93.75 18.75c-20.711 0-37.5-16.789-37.5-37.5s16.789-37.5 37.5-37.5 37.5 16.789 37.5 37.5-16.789 37.5-37.5 37.5zm0-18.75c10.355 0 18.75-8.3945 18.75-18.75s-8.3945-18.75-18.75-18.75-18.75 8.3945-18.75 18.75 8.3945 18.75 18.75 18.75zm-234.38 46.875h1125v37.5h-1125zm93.75 450c-10.355 0-18.75 8.3945-18.75 18.75v262.5c0 10.355 8.3945 18.75 18.75 18.75h431.25c10.355 0 18.75-8.3945 18.75-18.75v-262.5c0-10.355-8.3945-18.75-18.75-18.75zm0-18.75h431.25c20.711 0 37.5 16.789 37.5 37.5v262.5c0 20.711-16.789 37.5-37.5 37.5h-431.25c-20.711 0-37.5-16.789-37.5-37.5v-262.5c0-20.711 16.789-37.5 37.5-37.5zm956.25 37.5c10.355 0 18.75 8.3945 18.75 18.75s-8.3945 18.75-18.75 18.75h-412.5c-10.355 0-18.75-8.3945-18.75-18.75s8.3945-18.75 18.75-18.75zm9.375 75c5.1758 0 9.375 4.1992 9.375 9.375s-4.1992 9.375-9.375 9.375h-431.25c-5.1758 0-9.375-4.1992-9.375-9.375s4.1992-9.375 9.375-9.375zm0 37.5c5.1758 0 9.375 4.1992 9.375 9.375s-4.1992 9.375-9.375 9.375h-431.25c-5.1758 0-9.375-4.1992-9.375-9.375s4.1992-9.375 9.375-9.375zm0 37.5c5.1758 0 9.375 4.1992 9.375 9.375s-4.1992 9.375-9.375 9.375h-431.25c-5.1758 0-9.375-4.1992-9.375-9.375s4.1992-9.375 9.375-9.375zm0 37.5c5.1758 0 9.375 4.1992 9.375 9.375s-4.1992 9.375-9.375 9.375h-431.25c-5.1758 0-9.375-4.1992-9.375-9.375s4.1992-9.375 9.375-9.375zm-187.5 37.5c5.1758 0 9.375 4.1992 9.375 9.375s-4.1992 9.375-9.375 9.375h-243.75c-5.1758 0-9.375-4.1992-9.375-9.375s4.1992-9.375 9.375-9.375zm-778.12-581.25c-10.355 0-18.75 8.3945-18.75 18.75v206.25c0 10.355 8.3945 18.75 18.75 18.75h937.5c10.355 0 18.75-8.3945 18.75-18.75v-206.25c0-10.355-8.3945-18.75-18.75-18.75zm0-18.75h937.5c20.711 0 37.5 16.789 37.5 37.5v206.25c0 20.711-16.789 37.5-37.5 37.5h-937.5c-20.711 0-37.5-16.789-37.5-37.5v-206.25c0-20.711 16.789-37.5 37.5-37.5z" fill="#fff"/>
</svg>
