<?xml version="1.0" encoding="UTF-8"?>
<svg width="1200pt" height="1200pt" version="1.1" viewBox="0 0 1200 1200" xmlns="http://www.w3.org/2000/svg">
 <g fill="#fff">
  <path d="m37.5 131.25v956.25h1125v-956.25zm0-37.5h1125c20.711 0 37.5 16.789 37.5 37.5v956.25c0 20.711-16.789 37.5-37.5 37.5h-1125c-20.711 0-37.5-16.789-37.5-37.5v-956.25c0-20.711 16.789-37.5 37.5-37.5zm46.875 140.62c-20.711 0-37.5-16.789-37.5-37.5s16.789-37.5 37.5-37.5 37.5 16.789 37.5 37.5-16.789 37.5-37.5 37.5zm0-18.75c10.355 0 18.75-8.3945 18.75-18.75s-8.3945-18.75-18.75-18.75-18.75 8.3945-18.75 18.75 8.3945 18.75 18.75 18.75zm93.75 18.75c-20.711 0-37.5-16.789-37.5-37.5s16.789-37.5 37.5-37.5 37.5 16.789 37.5 37.5-16.789 37.5-37.5 37.5zm0-18.75c10.355 0 18.75-8.3945 18.75-18.75s-8.3945-18.75-18.75-18.75-18.75 8.3945-18.75 18.75 8.3945 18.75 18.75 18.75zm93.75 18.75c-20.711 0-37.5-16.789-37.5-37.5s16.789-37.5 37.5-37.5 37.5 16.789 37.5 37.5-16.789 37.5-37.5 37.5zm0-18.75c10.355 0 18.75-8.3945 18.75-18.75s-8.3945-18.75-18.75-18.75-18.75 8.3945-18.75 18.75 8.3945 18.75 18.75 18.75zm-234.38 46.875h1125v37.5h-1125zm693.75 131.25c-10.355 0-18.75 8.3945-18.75 18.75v262.5c0 10.355 8.3945 18.75 18.75 18.75h337.5c10.355 0 18.75-8.3945 18.75-18.75v-262.5c0-10.355-8.3945-18.75-18.75-18.75zm0-18.75h337.5c20.711 0 37.5 16.789 37.5 37.5v262.5c0 20.711-16.789 37.5-37.5 37.5h-337.5c-20.711 0-37.5-16.789-37.5-37.5v-262.5c0-20.711 16.789-37.5 37.5-37.5z"/>
  <path d="m646.88 375h-543.75c-5.1758 0-9.375 4.1992-9.375 9.375s4.1992 9.375 9.375 9.375h543.75c5.1758 0 9.375-4.1992 9.375-9.375s-4.1992-9.375-9.375-9.375zm0 37.5h-543.75c-5.1758 0-9.375 4.1992-9.375 9.375s4.1992 9.375 9.375 9.375h543.75c5.1758 0 9.375-4.1992 9.375-9.375s-4.1992-9.375-9.375-9.375zm0 37.5h-543.75c-5.1758 0-9.375 4.1992-9.375 9.375s4.1992 9.375 9.375 9.375h543.75c5.1758 0 9.375-4.1992 9.375-9.375s-4.1992-9.375-9.375-9.375zm0 37.5h-543.75c-5.1758 0-9.375 4.1992-9.375 9.375s4.1992 9.375 9.375 9.375h543.75c5.1758 0 9.375-4.1992 9.375-9.375s-4.1992-9.375-9.375-9.375zm0 37.5h-543.75c-5.1758 0-9.375 4.1992-9.375 9.375s4.1992 9.375 9.375 9.375h543.75c5.1758 0 9.375-4.1992 9.375-9.375s-4.1992-9.375-9.375-9.375zm0 37.5h-543.75c-5.1758 0-9.375 4.1992-9.375 9.375s4.1992 9.375 9.375 9.375h543.75c5.1758 0 9.375-4.1992 9.375-9.375s-4.1992-9.375-9.375-9.375zm0 37.5h-543.75c-5.1758 0-9.375 4.1992-9.375 9.375s4.1992 9.375 9.375 9.375h543.75c5.1758 0 9.375-4.1992 9.375-9.375s-4.1992-9.375-9.375-9.375zm0 37.5h-543.75c-5.1758 0-9.375 4.1992-9.375 9.375s4.1992 9.375 9.375 9.375h543.75c5.1758 0 9.375-4.1992 9.375-9.375s-4.1992-9.375-9.375-9.375zm0 37.5h-543.75c-5.1758 0-9.375 4.1992-9.375 9.375s4.1992 9.375 9.375 9.375h543.75c5.1758 0 9.375-4.1992 9.375-9.375s-4.1992-9.375-9.375-9.375zm0 37.5h-543.75c-5.1758 0-9.375 4.1992-9.375 9.375s4.1992 9.375 9.375 9.375h543.75c5.1758 0 9.375-4.1992 9.375-9.375s-4.1992-9.375-9.375-9.375zm450 37.5h-993.75c-5.1758 0-9.375 4.1992-9.375 9.375s4.1992 9.375 9.375 9.375h993.75c5.1758 0 9.375-4.1992 9.375-9.375s-4.1992-9.375-9.375-9.375zm0 37.5h-993.75c-5.1758 0-9.375 4.1992-9.375 9.375s4.1992 9.375 9.375 9.375h993.75c5.1758 0 9.375-4.1992 9.375-9.375s-4.1992-9.375-9.375-9.375zm0 37.5h-993.75c-5.1758 0-9.375 4.1992-9.375 9.375s4.1992 9.375 9.375 9.375h993.75c5.1758 0 9.375-4.1992 9.375-9.375s-4.1992-9.375-9.375-9.375zm0 37.5h-993.75c-5.1758 0-9.375 4.1992-9.375 9.375s4.1992 9.375 9.375 9.375h993.75c5.1758 0 9.375-4.1992 9.375-9.375s-4.1992-9.375-9.375-9.375zm0 37.5h-993.75c-5.1758 0-9.375 4.1992-9.375 9.375s4.1992 9.375 9.375 9.375h993.75c5.1758 0 9.375-4.1992 9.375-9.375s-4.1992-9.375-9.375-9.375zm0 37.5h-993.75c-5.1758 0-9.375 4.1992-9.375 9.375s4.1992 9.375 9.375 9.375h993.75c5.1758 0 9.375-4.1992 9.375-9.375s-4.1992-9.375-9.375-9.375zm0 37.5h-993.75c-5.1758 0-9.375 4.1992-9.375 9.375s4.1992 9.375 9.375 9.375h993.75c5.1758 0 9.375-4.1992 9.375-9.375s-4.1992-9.375-9.375-9.375zm0 37.5h-993.75c-5.1758 0-9.375 4.1992-9.375 9.375s4.1992 9.375 9.375 9.375h993.75c5.1758 0 9.375-4.1992 9.375-9.375s-4.1992-9.375-9.375-9.375z" fill-rule="evenodd"/>
 </g>
</svg>
